<?xml version="1.0" encoding="utf-8"?>
<!-- Generator: Adobe Illustrator 26.3.1, SVG Export Plug-In . SVG Version: 6.00 Build 0)  -->
<svg version="1.1" id="Calque_1" xmlns="http://www.w3.org/2000/svg" xmlns:xlink="http://www.w3.org/1999/xlink" x="0px" y="0px"
	 viewBox="0 0 150 150" style="enable-background:new 0 0 150 150;" xml:space="preserve">
<g>
	<path d="M48.7,89.1c-0.7,0-1.4,0-2.1,0c-0.3-2.7-0.6-5.4-1-8.1c0,0,0,0-0.1,0c-0.1,0.1-0.1,0.2-0.2,0.4c-1,2.3-1.9,4.7-2.7,7.1
		c-0.1,0.3-0.2,0.3-0.4,0.3c-0.6,0-1.2,0-1.7,0c-0.2,0-0.3-0.1-0.4-0.3c-0.8-2.4-1.7-4.8-2.7-7.2c0-0.1-0.1-0.2-0.2-0.3
		c0,0-0.1,0-0.1,0c-0.3,2.7-0.6,5.4-0.9,8.1c-0.7,0-1.4,0-2.1,0c0.5-4,1-8,1.4-12c0.7,0,1.3,0,2,0c0.1,0,0.2,0.1,0.2,0.2
		c1,2.1,2,4.2,2.8,6.4c0.2,0.6,0.4,1.2,0.7,1.9c0,0.1,0.1,0.2,0.1,0.3c0.1-0.2,0.1-0.2,0.2-0.3c0.9-2.8,2.1-5.5,3.4-8.2
		c0.1-0.3,0.3-0.4,0.6-0.4c0.4,0,0.9,0,1.3,0c0.3,0,0.4,0.1,0.4,0.3c0.1,0.8,0.2,1.5,0.3,2.3c0.2,1.4,0.3,2.8,0.5,4.2
		C48.3,85.6,48.5,87.3,48.7,89.1z"/>
	<path d="M5,64.9c0-0.7,0-1.4,0-2.1c0-0.1,0.1-0.2,0.2-0.2c1.5-0.4,2.9-0.8,4.4-1.2c2.1-0.5,4.3-0.6,6.5-0.5
		c2.6,0.1,5.1,0.7,7.3,2.2c2.8,1.8,4.2,4.4,4.2,7.8c0,3.3-1.3,6.1-4,8.2c-0.1,0.1-0.2,0.2-0.4,0.3c-0.5-0.5-0.9-1.1-1.4-1.6
		c0.4-0.4,0.9-0.8,1.3-1.2c2.3-2.4,2.9-6.5,1.2-9.3c-0.8-1.4-2-2.3-3.4-3c-1.8-0.8-3.8-1.1-5.8-1.2c-3.3-0.1-6.6,0.6-9.7,1.7
		c-0.1,0-0.3,0.1-0.4,0.1C5.1,64.9,5.1,64.9,5,64.9z"/>
	<path d="M95.2,67.7c-2.9,0-5.7,0-8.6,0c0,0.3,0.1,0.5,0.1,0.7c0.4,2,1.8,2.7,3.6,2.7c0.3,0,0.7-0.1,1-0.2c0.8-0.2,1.3-0.7,1.6-1.5
		c0-0.1,0.1-0.2,0.1-0.3c0,0,0,0,0.1-0.1c0.6,0.2,1.3,0.4,2,0.6c-0.2,0.6-0.4,1.2-0.8,1.7c-0.8,1-2,1.5-3.2,1.6
		c-0.9,0.1-1.7,0.1-2.6-0.1c-1.7-0.5-3-1.5-3.5-3.2c-0.7-2.1-0.7-4.2,0.2-6.3c0.9-1.8,2.4-2.7,4.3-2.8c1-0.1,2,0,3,0.4
		c1.5,0.7,2.3,1.8,2.7,3.3C95.3,65.5,95.2,66.6,95.2,67.7z M86.6,65.8c0.1,0,0.1,0,0.2,0c2,0,4,0,6,0c0.2,0,0.2-0.1,0.2-0.2
		c0-0.8-0.2-1.5-0.7-2.1c-1-1-2.2-1.2-3.5-0.8c-1.2,0.4-1.8,1.3-2.1,2.5C86.6,65.5,86.6,65.6,86.6,65.8z"/>
	<path d="M61.2,83.9c-3,0-5.8,0-8.7,0c-0.1,1.6,1.1,3.1,2.7,3.4c0.6,0.1,1.2,0.1,1.8-0.1c0.8-0.2,1.5-0.7,1.8-1.5
		c0-0.1,0.1-0.2,0.1-0.3c0.6,0.2,1.2,0.4,1.9,0.6c0.2,0.1,0.1,0.2,0.1,0.3c-0.5,1.4-1.4,2.3-2.8,2.7c-1.9,0.5-3.7,0.5-5.4-0.6
		c-1-0.6-1.6-1.6-1.9-2.6c-0.6-1.8-0.6-3.6,0-5.4c0.7-2.1,2.4-3.4,4.7-3.5c1,0,2,0,3,0.5c1.6,0.8,2.4,2.1,2.6,3.7
		C61.1,81.9,61.1,82.9,61.2,83.9z M58.8,82c0.1-1.7-0.8-3.2-2.9-3.2c-1.7-0.1-3,1-3.4,2.7c0,0.2-0.1,0.4-0.1,0.6
		C54.6,82,56.7,82,58.8,82z"/>
	<path d="M145,83.9c-3,0-5.8,0-8.8,0c0.1,0.4,0.1,0.7,0.2,1c0.4,1.5,1.5,2.3,3,2.4c0.5,0,0.9,0,1.4-0.1c0.9-0.2,1.5-0.7,1.8-1.5
		c0-0.1,0.1-0.2,0.1-0.3c0.6,0.2,1.3,0.4,1.9,0.6c0,0,0.1,0.2,0,0.3c-0.4,1.2-1.2,2.1-2.4,2.6c-1.1,0.5-2.2,0.5-3.4,0.4
		c-1.5-0.1-2.7-0.7-3.7-1.9c-0.7-0.9-1-1.9-1.2-3.1c-0.1-1.5-0.1-3,0.5-4.4c0.9-1.9,2.3-2.9,4.4-3c1-0.1,2.1,0,3,0.4
		c1.6,0.7,2.4,2.1,2.7,3.7C144.9,81.9,144.9,82.9,145,83.9z M142.7,82c0.1-0.7-0.1-1.5-0.5-2.1c-1-1.6-4.2-1.7-5.4,0.4
		c-0.3,0.5-0.5,1.1-0.5,1.7C138.5,82,140.6,82,142.7,82z"/>
	<path d="M69.1,60.9c0,4,0,8,0,12.1c-0.5,0-0.9,0-1.4,0c-0.6,0.1-0.9-0.2-1.2-0.7c-1.4-2.7-3.1-5.2-5-7.5c-0.1-0.2-0.3-0.3-0.5-0.5
		c0,2.9,0,5.8,0,8.7c-0.7,0-1.3,0-2,0c-0.1,0-0.1-0.1-0.1-0.1c0-0.1,0-0.2,0-0.2c0-3.8,0-7.5,0-11.3c0-0.3,0.1-0.4,0.4-0.4
		c0.5,0,1,0,1.4,0c0.1,0,0.3,0.1,0.4,0.2c2.1,2.3,4.1,4.8,5.7,7.5c0,0.1,0.1,0.1,0.2,0.2c0-2.7,0-5.3,0-8
		C67.7,60.9,68.4,60.9,69.1,60.9z"/>
	<path d="M56.7,67.7c-2.9,0-5.8,0-8.7,0c0.1,0.8,0.3,1.6,0.8,2.2c0.8,1,1.8,1.2,3,1.2c0.3,0,0.6-0.1,0.9-0.1
		c0.8-0.2,1.4-0.8,1.7-1.5c0.1-0.2,0.1-0.2,0.3-0.2c0.6,0.2,1.2,0.4,1.8,0.6c-0.2,0.7-0.5,1.3-0.9,1.8c-0.9,1-2,1.4-3.3,1.5
		c-0.9,0-1.7,0.1-2.6-0.2c-1.6-0.5-2.8-1.5-3.4-3.2c-0.7-2-0.7-3.9,0.1-5.9c0.8-2,2.4-3,4.5-3.2c1-0.1,2.1,0,3,0.5
		c1.6,0.7,2.4,2.1,2.6,3.7C56.6,65.8,56.6,66.7,56.7,67.7z M54.4,65.9c0.1-1.1-0.4-2.2-1.2-2.7c-1.4-1-3.7-0.8-4.7,0.9
		c-0.3,0.4-0.4,0.9-0.5,1.4c-0.1,0.4-0.1,0.4,0.3,0.4c1.6,0,3.1,0,4.7,0C53.5,65.9,54,65.9,54.4,65.9z"/>
	<path d="M72,60.9c0.6,0,1.3,0,1.9,0c0.1,0,0.2,0.1,0.3,0.2c2.2,2.3,4.1,4.8,5.7,7.6c0,0.1,0.1,0.1,0.1,0.1c0-0.1,0-0.2,0-0.3
		c0-2.4,0-4.8,0-7.3c0-0.3,0.1-0.4,0.4-0.4c0.6,0,1.2,0,1.8,0c0,0.2,0,0.3,0,0.4c0,3.8,0,7.5,0,11.3c0,0.4,0,0.4-0.4,0.4
		c-0.5,0-1,0-1.5,0c-0.2,0-0.3-0.1-0.4-0.2c-1.5-2.8-3.2-5.4-5.1-7.9c-0.2-0.2-0.4-0.4-0.6-0.7c0,3,0,5.9,0,8.8c-0.7,0-1.4,0-2.1,0
		C72,68.9,72,64.9,72,60.9z"/>
	<path d="M81,84.8c0.5,0.7,0.8,1.6,1.6,2c0.3,0.2,0.8,0.3,1.2,0.4c0,0.6,0,1.2,0,1.9c-1.3,0.1-2.5-0.2-3.3-1.3
		c-0.6-0.8-1.1-1.6-1.6-2.5c-0.1-0.2-0.2-0.2-0.4-0.2c-0.7,0-1.4,0-2.2,0c0,1.3,0,2.6,0,3.9c-0.7,0-1.4,0-2.1,0c0-4,0-8,0-12
		c0.1,0,0.2,0,0.3,0c1.6,0,3.3,0,4.9,0c1.1,0,2.2,0.3,3.1,1c0.8,0.7,1.2,1.5,1.3,2.6c0,0.6,0,1.2-0.2,1.8c-0.4,1.1-1.1,1.8-2.2,2.3
		C81.3,84.7,81.2,84.8,81,84.8z M76.3,79c0,1.4,0,2.8,0,4.2c0.6,0,1.1,0,1.7,0c0.6,0,1.2,0,1.7,0c1.3-0.1,2-1,1.9-2.3
		c-0.1-1-0.8-1.8-1.7-1.9C79,79,78.1,79,77.3,79C77,79,76.6,79,76.3,79z"/>
	<path d="M44.2,71c0,0.7,0,1.3,0,2c-0.9,0-1.9,0-2.6-0.7c-0.5-0.5-0.9-1-1.3-1.6c-0.4-0.5-0.6-1-1-1.5C39.2,69.1,39.1,69,39,69
		c-0.8,0-1.6,0-2.4,0c0,1.3,0,2.6,0,3.9c-0.7,0-1.4,0-2.1,0c0-4,0-8,0-12.1c0.1,0,0.2,0,0.3,0c1.7,0,3.5,0,5.2,0
		c0.8,0,1.5,0.2,2.2,0.6c1.2,0.6,1.8,1.6,1.9,3c0.1,1.5-0.3,2.8-1.7,3.7c-0.3,0.2-0.7,0.4-1.1,0.6c0.4,0.5,0.7,1,1.1,1.5
		C42.9,70.8,43.5,71,44.2,71z M36.6,67.1C36.6,67.1,36.7,67.1,36.6,67.1c1.3,0,2.4,0.1,3.6,0c0.7-0.1,1.3-0.5,1.6-1.2
		c0.2-0.8,0.2-1.6-0.4-2.2c-0.5-0.6-1.2-0.7-2-0.7c-0.8,0-1.6,0-2.4,0c-0.3,0-0.4,0.1-0.4,0.3c0,1.2,0,2.4,0,3.6
		C36.6,66.9,36.6,67,36.6,67.1z"/>
	<path d="M123,83c0,1.4-0.3,2.7-1.1,3.9c-1,1.5-2.5,2.3-4.3,2.3c-0.8,0-1.7,0.1-2.5-0.2c-2.3-0.7-3.6-2.2-4.1-4.5
		c-0.3-1.6-0.2-3.2,0.5-4.7c1-1.9,2.6-2.9,4.7-3.1c1.2-0.1,2.3,0,3.4,0.5c1.8,0.9,2.8,2.3,3.2,4.3C123,82.1,123,82.6,123,83z
		 M120.8,83.2c0-0.8-0.1-1.4-0.4-2.1c-1.2-2.8-5-3-6.5-0.8c-0.8,1.1-1,2.3-0.8,3.5c0.2,1.5,1.1,3.1,3.2,3.4c1.4,0.2,2.6-0.2,3.5-1.3
		C120.6,85.1,120.8,84.1,120.8,83.2z"/>
	<path d="M91.4,89.3c-1,0.1-2-0.2-3-0.6c-1.5-0.8-2.4-2.1-2.8-3.7c-0.4-1.9-0.3-3.7,0.7-5.4c1.1-1.8,2.7-2.6,4.8-2.7
		c1.1,0,2.2,0.1,3.2,0.6c1.3,0.6,2.3,1.7,2.8,3c0.7,1.9,0.7,3.8-0.1,5.6c-0.9,2.1-2.7,3.1-4.9,3.2C91.8,89.3,91.6,89.3,91.4,89.3z
		 M95.3,83.1c0-0.1,0-0.3,0-0.4c0-1.7-1.2-3.6-3.2-3.9c-1.2-0.1-2.3,0.1-3.2,0.9c-1,1-1.4,2.2-1.3,3.6c0.1,1.9,1.1,3.6,3.4,3.9
		c1.1,0.1,2.2-0.2,3-1C95,85.5,95.3,84.4,95.3,83.1z"/>
	<path d="M96.6,69.8c0.7-0.3,1.3-0.5,2-0.7c0.1,0.1,0.1,0.2,0.1,0.3c0.6,1.3,1.6,1.9,2.9,1.9c0.6,0,1.2,0,1.8-0.3
		c0.6-0.3,0.9-0.8,0.9-1.5c0-0.7-0.3-1.1-0.9-1.3c-0.7-0.2-1.4-0.4-2.1-0.5c-1-0.2-2-0.4-2.9-1c-1.2-0.8-1.5-2-1.3-3.3
		c0.2-1.3,1-2.2,2.3-2.5c1.5-0.5,3-0.4,4.5,0.2c1.2,0.5,1.8,1.5,2.2,2.6c0.1,0.2,0,0.3-0.2,0.3c-0.5,0.1-1,0.3-1.6,0.4
		c-0.1,0-0.2,0-0.3-0.1c-0.4-1.5-1.6-2.1-3.3-1.9c-0.2,0-0.5,0.1-0.7,0.2c-0.6,0.2-0.9,0.7-0.9,1.3c0,0.6,0.3,1,0.8,1.2
		c0.5,0.2,1.1,0.3,1.6,0.4c0.9,0.2,1.9,0.3,2.8,0.7c0.9,0.4,1.6,0.9,1.9,1.9c0.5,1.7-0.1,3.6-2,4.4c-0.8,0.3-1.6,0.4-2.4,0.4
		c-1.2,0-2.4-0.1-3.5-0.8C97.5,71.7,96.9,70.9,96.6,69.8z"/>
	<path d="M101.8,85.5c0,1.2,0,2.4,0,3.6c-0.7,0-1.4,0-2.1,0c0-4,0-8,0-12c0,0,0.1,0,0.1,0c1.9,0,3.8,0,5.7,0.1c1,0,2,0.4,2.7,1.1
		c0.9,0.8,1.2,1.9,1.2,3c0,0.8-0.1,1.5-0.5,2.2c-0.6,1.1-1.5,1.7-2.7,1.9c-1,0.2-2.1,0.2-3.1,0.2C102.7,85.5,102.3,85.5,101.8,85.5z
		 M101.8,83.5c1.2,0,2.3,0.1,3.4,0c1.2-0.1,1.9-0.7,2.1-1.9c0.2-1-0.3-2.3-1.8-2.5c-0.8-0.1-1.6-0.1-2.4-0.1c-0.4,0-0.8,0-1.2,0
		C101.8,80.5,101.8,82,101.8,83.5z"/>
	<path d="M19,75.1c0.3-0.3,0.7-0.5,1-0.9c1.1-1.2,1.4-2.5,1-4.1c-0.3-1.2-1.1-1.9-2.1-2.4c-1.1-0.5-2.2-0.7-3.3-0.7
		c-3.4-0.1-6.7,0.5-9.9,1.7C5.5,68.8,5.3,68.9,5,69c0-0.8,0-1.5,0-2.2c0-0.1,0.1-0.2,0.2-0.2c1.2-0.4,2.3-0.8,3.5-1.1
		c2.3-0.6,4.7-0.8,7.1-0.7c1.5,0.1,2.9,0.3,4.2,1c1.7,0.8,2.9,2,3.3,3.9c0.5,2.3-0.3,4.9-2.3,6.5c-0.2,0.1-0.3,0.1-0.5,0
		C20,75.8,19.5,75.4,19,75.1z"/>
	<path d="M11.3,89c-0.7,0-1.5,0-2.2,0c0-0.1,0-0.2,0-0.3c0-6.3,0-12.6,0-18.9c0-0.3,0.1-0.4,0.4-0.5c0.6-0.1,1.2-0.2,1.9-0.3
		C11.3,75.7,11.3,82.3,11.3,89z"/>
	<path d="M7.2,89c-0.7,0-1.5,0-2.2,0c0-0.1,0-0.2,0-0.3C5,82.9,5,77,5,71.2c0-0.3,0.1-0.4,0.3-0.5c0.5-0.2,1.1-0.4,1.6-0.6
		c0.1,0,0.2,0,0.3-0.1C7.2,76.4,7.2,82.7,7.2,89z"/>
	<path d="M61.9,77c3.5,0,7,0,10.5,0c0,0.7,0,1.3,0,2c-1.4,0-2.8,0-4.2,0c0,3.4,0,6.7,0,10.1c-0.7,0-1.4,0-2.1,0c0-3.3,0-6.7,0-10
		c-1.4,0-2.7,0-4.1,0C61.9,78.4,61.9,77.7,61.9,77z"/>
	<path d="M27.2,87.2c0,0.7,0,1.4,0,2c0,0.1-0.1,0.2-0.1,0.2c-2,0.1-4,0-5.8-0.9c-1.2-0.7-2.2-1.6-3-2.7c-0.7-0.9-1.4-1.8-2-2.7
		c-0.7-0.9-1.6-1.6-2.8-1.8c0,0-0.1,0-0.1-0.1c0-0.7,0-1.5,0-2.2c1.2,0.2,2.4,0.5,3.4,1.4c0.8,0.6,1.3,1.4,1.9,2.2
		c0.8,1.1,1.5,2.1,2.5,3c1.1,1,2.4,1.6,3.9,1.7C25.7,87.2,26.4,87.2,27.2,87.2z"/>
	<path d="M27.2,83.4c0,0.7,0,1.4,0,2.1c-1.9,0.2-3.6-0.1-4.9-1.6c-0.8-0.9-1.6-1.8-2.3-2.8c-0.7-0.9-1.5-1.8-2.4-2.5
		c-1.1-0.8-2.4-1.2-3.8-1.3c-0.4,0-0.4,0-0.4-0.4c0-0.6,0-1.2,0-1.8c0.6,0.1,1.1,0.1,1.6,0.2c2.7,0.4,4.8,1.8,6.5,4
		c0.5,0.7,1,1.3,1.5,2C23.9,82.7,25.2,83.7,27.2,83.4z"/>
	<path d="M133.2,87.1c0,0.7,0,1.3,0,2c-2.7,0-5.3,0-8,0c0-4,0-8,0-12c0.7,0,1.4,0,2.1,0c0,3.3,0,6.7,0,10
		C129.2,87.1,131.2,87.1,133.2,87.1z"/>
	<path d="M54.5,76c-0.2-0.5-0.3-0.9-0.5-1.4c0.2-0.1,0.4-0.2,0.5-0.2c1.2-0.4,2.3-0.8,3.5-1.2c0.2-0.1,0.3,0,0.4,0.2
		c0.1,0.3,0.2,0.7,0.3,1c0.1,0.2,0,0.3-0.2,0.3C57.2,75.1,55.9,75.6,54.5,76z"/>
</g>
</svg>
